<svg width="102" height="27" viewBox="0 0 102 27" fill="none" xmlns="http://www.w3.org/2000/svg">
<path d="M30.7136 11.9714H29.2077L30.7136 14.5998L29.153 17.2283H30.6589L31.6788 15.411L32.7158 17.2283H34.2046L32.6405 14.5998L34.1635 11.9714H32.6679L31.6788 13.8092L30.7136 11.9714ZM35.0294 19.1997H36.4874V16.3864H36.5319C36.7338 16.8245 37.1753 17.3139 38.0241 17.3139C39.222 17.3139 40.1563 16.3659 40.1563 14.6067C40.1563 12.7996 39.1809 11.9029 38.0275 11.9029C37.148 11.9029 36.727 12.4265 36.5319 12.8544H36.4669V11.9714H35.0294V19.1997ZM36.4566 14.5998C36.4566 13.6621 36.8536 13.0631 37.5621 13.0631C38.2842 13.0631 38.6676 13.6895 38.6676 14.5998C38.6676 15.5171 38.2774 16.1537 37.5621 16.1537C36.8605 16.1537 36.4566 15.5376 36.4566 14.5998ZM43.5241 17.331C44.8247 17.331 45.7008 16.6978 45.9062 15.7224L44.5577 15.6334C44.4105 16.0339 44.0341 16.2426 43.5481 16.2426C42.8191 16.2426 42.357 15.7601 42.357 14.9763V14.9729H45.937V14.5725C45.937 12.7859 44.8555 11.9029 43.4659 11.9029C41.9189 11.9029 40.9161 13.0015 40.9161 14.6238C40.9161 16.2906 41.9052 17.331 43.5241 17.331ZM42.357 14.0694C42.3878 13.4704 42.843 12.9913 43.4899 12.9913C44.123 12.9913 44.5611 13.443 44.5645 14.0694H42.357ZM48.3464 14.1891C48.3498 13.5115 48.7537 13.1145 49.3424 13.1145C49.9276 13.1145 50.2801 13.4978 50.2767 14.1412V17.2283H51.7347V13.8811C51.7347 12.6559 51.016 11.9029 49.9208 11.9029C49.1404 11.9029 48.5757 12.2862 48.3396 12.8989H48.278V11.9714H46.8884V17.2283H48.3464V14.1891ZM57.2578 13.4704C57.1277 12.5018 56.3474 11.9029 55.0195 11.9029C53.6744 11.9029 52.788 12.5258 52.7914 13.5389C52.788 14.326 53.2842 14.836 54.311 15.0413L55.2214 15.2227C55.68 15.3151 55.8888 15.4829 55.8956 15.7464C55.8888 16.0578 55.5499 16.2803 55.04 16.2803C54.5198 16.2803 54.1741 16.0578 54.0851 15.63L52.6511 15.7053C52.788 16.7115 53.6436 17.331 55.0366 17.331C56.3987 17.331 57.3741 16.6362 57.3776 15.5992C57.3741 14.8394 56.8779 14.3842 55.858 14.1755L54.9065 13.9838C54.4171 13.8777 54.2357 13.71 54.2391 13.4567C54.2357 13.1419 54.5916 12.9365 55.0434 12.9365C55.5499 12.9365 55.8511 13.2137 55.923 13.5526L57.2578 13.4704ZM60.6914 17.331C61.992 17.331 62.8681 16.6978 63.0735 15.7224L61.725 15.6334C61.5778 16.0339 61.2014 16.2426 60.7154 16.2426C59.9864 16.2426 59.5243 15.7601 59.5243 14.9763V14.9729H63.1043V14.5725C63.1043 12.7859 62.0228 11.9029 60.6332 11.9029C59.0863 11.9029 58.0835 13.0015 58.0835 14.6238C58.0835 16.2906 59.0726 17.331 60.6914 17.331ZM59.5243 14.0694C59.5551 13.4704 60.0103 12.9913 60.6572 12.9913C61.2904 12.9913 61.7284 13.443 61.7319 14.0694H59.5243ZM66.0468 11.4409H68.1927V17.2283H69.6575V11.4409H71.8035V10.219H66.0468V11.4409ZM72.1782 17.2283H73.6362V14.2542C73.6362 13.6073 74.1085 13.1624 74.752 13.1624C74.9539 13.1624 75.2311 13.1966 75.368 13.2411V11.9474C75.238 11.9166 75.0566 11.8961 74.9094 11.8961C74.3207 11.8961 73.8381 12.2383 73.6465 12.8886H73.5917V11.9714H72.1782V17.2283ZM77.4703 17.3276C78.2472 17.3276 78.7503 16.9888 79.007 16.4993H79.0481V17.2283H80.4308V13.6826C80.4308 12.43 79.3698 11.9029 78.1993 11.9029C76.9398 11.9029 76.1115 12.5053 75.9096 13.4636L77.2581 13.5731C77.3573 13.224 77.6688 12.9673 78.1924 12.9673C78.6887 12.9673 78.9728 13.2171 78.9728 13.6484V13.6689C78.9728 14.0077 78.6134 14.0522 77.6996 14.1412C76.6591 14.2371 75.7248 14.5862 75.7248 15.7601C75.7248 16.8005 76.4675 17.3276 77.4703 17.3276ZM77.8878 16.3214C77.4395 16.3214 77.1178 16.1126 77.1178 15.7122C77.1178 15.3015 77.4566 15.0995 77.97 15.0277C78.2883 14.9832 78.8085 14.9079 78.983 14.7915V15.3494C78.983 15.9004 78.5278 16.3214 77.8878 16.3214ZM83.9371 17.331C85.3369 17.331 86.2165 16.5096 86.285 15.3015H84.9091C84.8235 15.8628 84.4539 16.1776 83.9542 16.1776C83.2732 16.1776 82.8316 15.6061 82.8316 14.5998C82.8316 13.6073 83.2766 13.0392 83.9542 13.0392C84.4881 13.0392 84.8304 13.3917 84.9091 13.9153H86.285C86.2234 12.7003 85.3027 11.9029 83.9303 11.9029C82.3354 11.9029 81.3497 13.0084 81.3497 14.6204C81.3497 16.2187 82.3183 17.331 83.9371 17.331ZM87.2185 17.2283H88.6764V15.5581L89.07 15.1098L90.5041 17.2283H92.2119L90.1618 14.2473L92.1126 11.9714H90.439L88.7552 13.9667H88.6764V10.219H87.2185V17.2283ZM95.0072 17.331C96.3078 17.331 97.184 16.6978 97.3893 15.7224L96.0408 15.6334C95.8937 16.0339 95.5172 16.2426 95.0312 16.2426C94.3022 16.2426 93.8402 15.7601 93.8402 14.9763V14.9729H97.4201V14.5725C97.4201 12.7859 96.3386 11.9029 94.9491 11.9029C93.4021 11.9029 92.3993 13.0015 92.3993 14.6238C92.3993 16.2906 93.3884 17.331 95.0072 17.331ZM93.8402 14.0694C93.871 13.4704 94.3262 12.9913 94.973 12.9913C95.6062 12.9913 96.0443 13.443 96.0477 14.0694H93.8402ZM98.3716 17.2283H99.8296V14.2542C99.8296 13.6073 100.302 13.1624 100.945 13.1624C101.147 13.1624 101.424 13.1966 101.561 13.2411V11.9474C101.431 11.9166 101.25 11.8961 101.103 11.8961C100.514 11.8961 100.031 12.2383 99.8398 12.8886H99.7851V11.9714H98.3716V17.2283Z" fill="#D53F8C"/>
<rect x="2.40945" y="2.40945" width="21.685" height="21.685" stroke="#D53F8C" stroke-width="4.8189"/>
<path d="M11.0502 17.2283H15.7869V16.0065H12.5321V14.3329H15.5302V13.1111H12.5321V11.4409H15.7732V10.219H11.0502V17.2283Z" fill="#D53F8C"/>
</svg>
